<mxfile host="app.diagrams.net" modified="2021-03-25T06:25:25.736Z" agent="5.0 (Macintosh; Intel Mac OS X 11_2_3) AppleWebKit/537.36 (KHTML, like Gecko) Chrome/89.0.4389.90 Safari/537.36" etag="kXUo3UjeBRIqIeRq0LzW" version="14.5.1" type="github">
  <diagram id="zEzndLEBEcfoY0ezNwC1" name="第 1 页">
    <mxGraphModel dx="3440" dy="-661" grid="0" gridSize="10" guides="1" tooltips="1" connect="1" arrows="1" fold="1" page="1" pageScale="1" pageWidth="1169" pageHeight="827" background="#FFFDF0" math="0" shadow="0">
      <root>
        <mxCell id="0" />
        <mxCell id="1" parent="0" />
        <mxCell id="g-i54Jcr1pJkgFoDs0SZ-1" style="edgeStyle=orthogonalEdgeStyle;rounded=0;orthogonalLoop=1;jettySize=auto;html=1;exitX=0.5;exitY=1;exitDx=0;exitDy=0;exitPerimeter=0;" edge="1" parent="1">
          <mxGeometry relative="1" as="geometry">
            <mxPoint x="-996" y="2199.74" as="sourcePoint" />
            <mxPoint x="-996" y="2199.74" as="targetPoint" />
          </mxGeometry>
        </mxCell>
        <mxCell id="g-i54Jcr1pJkgFoDs0SZ-2" value="" style="curved=1;endArrow=classic;html=1;shadow=1;strokeWidth=2;dashed=1;" edge="1" parent="1">
          <mxGeometry width="50" height="50" relative="1" as="geometry">
            <mxPoint x="-952.5" y="2035" as="sourcePoint" />
            <mxPoint x="-822.5" y="2119.24" as="targetPoint" />
            <Array as="points">
              <mxPoint x="-863.5" y="2052.24" />
              <mxPoint x="-903.5" y="2106.49" />
            </Array>
          </mxGeometry>
        </mxCell>
        <mxCell id="g-i54Jcr1pJkgFoDs0SZ-3" value="" style="curved=1;endArrow=classic;html=1;shadow=1;strokeWidth=2;dashed=1;" edge="1" parent="1">
          <mxGeometry width="50" height="50" relative="1" as="geometry">
            <mxPoint x="-951" y="2179.74" as="sourcePoint" />
            <mxPoint x="-826" y="2134.74" as="targetPoint" />
            <Array as="points">
              <mxPoint x="-876" y="2168.74" />
            </Array>
          </mxGeometry>
        </mxCell>
        <mxCell id="g-i54Jcr1pJkgFoDs0SZ-4" value="&lt;div style=&quot;font-family: &amp;#34;helvetica&amp;#34; ; font-size: 12px&quot;&gt;&lt;br&gt;&lt;/div&gt;" style="text;html=1;strokeColor=none;fillColor=none;align=center;verticalAlign=middle;whiteSpace=wrap;rounded=0;shadow=1;glass=1;sketch=1;fontFamily=Tahoma;fontSize=14;" vertex="1" parent="1">
          <mxGeometry x="-1086.5" y="2220.24" width="181" height="20" as="geometry" />
        </mxCell>
        <mxCell id="g-i54Jcr1pJkgFoDs0SZ-5" value="&lt;b&gt;&lt;font style=&quot;font-size: 22px&quot;&gt;TUNNEL&lt;/font&gt;&lt;/b&gt;" style="ellipse;whiteSpace=wrap;html=1;shadow=1;glass=1;sketch=1;strokeWidth=2;fontFamily=Tahoma;fontSize=14;fillStyle=solid;fillColor=#f0c9cf;" vertex="1" parent="1">
          <mxGeometry x="-752.5" y="2070.24" width="157" height="108" as="geometry" />
        </mxCell>
        <mxCell id="g-i54Jcr1pJkgFoDs0SZ-6" value="VIP" style="rounded=0;whiteSpace=wrap;html=1;shadow=1;glass=1;sketch=1;strokeColor=#000000;strokeWidth=2;fontFamily=Tahoma;fontSize=14;fillStyle=solid;fillColor=#A9C4EB;" vertex="1" parent="1">
          <mxGeometry x="-815.5" y="2110" width="85" height="32.75" as="geometry" />
        </mxCell>
        <mxCell id="g-i54Jcr1pJkgFoDs0SZ-7" style="edgeStyle=orthogonalEdgeStyle;curved=1;sketch=0;orthogonalLoop=1;jettySize=auto;html=1;exitX=1;exitY=0.5;exitDx=0;exitDy=0;entryX=-0.003;entryY=0.627;entryDx=0;entryDy=0;entryPerimeter=0;shadow=1;strokeWidth=2;" edge="1" parent="1" source="g-i54Jcr1pJkgFoDs0SZ-10" target="g-i54Jcr1pJkgFoDs0SZ-13">
          <mxGeometry relative="1" as="geometry" />
        </mxCell>
        <mxCell id="g-i54Jcr1pJkgFoDs0SZ-8" style="edgeStyle=orthogonalEdgeStyle;curved=1;sketch=0;orthogonalLoop=1;jettySize=auto;html=1;exitX=1;exitY=0.5;exitDx=0;exitDy=0;entryX=0;entryY=0.5;entryDx=0;entryDy=0;entryPerimeter=0;shadow=1;strokeWidth=2;" edge="1" parent="1" source="g-i54Jcr1pJkgFoDs0SZ-10" target="g-i54Jcr1pJkgFoDs0SZ-12">
          <mxGeometry relative="1" as="geometry" />
        </mxCell>
        <mxCell id="g-i54Jcr1pJkgFoDs0SZ-9" style="edgeStyle=orthogonalEdgeStyle;curved=1;sketch=0;orthogonalLoop=1;jettySize=auto;html=1;exitX=1;exitY=0.5;exitDx=0;exitDy=0;entryX=0;entryY=0.5;entryDx=0;entryDy=0;entryPerimeter=0;shadow=1;strokeColor=#FF0000;strokeWidth=2;fontColor=#E6E6E6;" edge="1" parent="1" source="g-i54Jcr1pJkgFoDs0SZ-10" target="g-i54Jcr1pJkgFoDs0SZ-27">
          <mxGeometry relative="1" as="geometry" />
        </mxCell>
        <mxCell id="g-i54Jcr1pJkgFoDs0SZ-10" value="DIP" style="rounded=0;whiteSpace=wrap;html=1;shadow=1;glass=1;sketch=1;strokeColor=#000000;strokeWidth=2;fontFamily=Tahoma;fontSize=14;fillStyle=solid;fillColor=#A9C4EB;" vertex="1" parent="1">
          <mxGeometry x="-617.5" y="2110" width="85" height="32.75" as="geometry" />
        </mxCell>
        <mxCell id="g-i54Jcr1pJkgFoDs0SZ-11" value="&lt;div style=&quot;font-family: &amp;#34;helvetica&amp;#34; ; font-size: 12px&quot;&gt;&lt;br&gt;&lt;/div&gt;" style="text;html=1;strokeColor=none;fillColor=none;align=center;verticalAlign=middle;whiteSpace=wrap;rounded=0;shadow=1;glass=1;sketch=1;fontFamily=Tahoma;fontSize=14;" vertex="1" parent="1">
          <mxGeometry x="-1073.5" y="2093.24" width="181" height="20" as="geometry" />
        </mxCell>
        <mxCell id="g-i54Jcr1pJkgFoDs0SZ-12" value="" style="shape=mxgraph.signs.tech.computer;html=1;pointerEvents=1;verticalLabelPosition=bottom;verticalAlign=top;align=center;labelBackgroundColor=none;fontColor=#ffffff;fillColor=#4D4D4D;strokeColor=#4D4D4D;" vertex="1" parent="1">
          <mxGeometry x="-322" y="2100.38" width="62" height="52" as="geometry" />
        </mxCell>
        <mxCell id="g-i54Jcr1pJkgFoDs0SZ-13" value="" style="shape=mxgraph.signs.tech.computer;html=1;pointerEvents=1;verticalLabelPosition=bottom;verticalAlign=top;align=center;labelBackgroundColor=none;fontColor=#ffffff;fillColor=#4D4D4D;strokeColor=#4D4D4D;" vertex="1" parent="1">
          <mxGeometry x="-416" y="2215" width="62" height="52" as="geometry" />
        </mxCell>
        <mxCell id="g-i54Jcr1pJkgFoDs0SZ-14" value="&lt;span style=&quot;color: rgb(0, 0, 0); font-family: helvetica; font-size: 12px; font-style: normal; font-weight: 400; letter-spacing: normal; text-align: center; text-indent: 0px; text-transform: none; word-spacing: 0px; display: inline; float: none;&quot;&gt;RIP-2&lt;/span&gt;" style="text;html=1;strokeColor=none;fillColor=none;align=center;verticalAlign=middle;whiteSpace=wrap;rounded=0;labelBackgroundColor=none;" vertex="1" parent="1">
          <mxGeometry x="-311" y="2109.38" width="40" height="20" as="geometry" />
        </mxCell>
        <mxCell id="g-i54Jcr1pJkgFoDs0SZ-15" value="&lt;span style=&quot;color: rgb(0, 0, 0); font-family: helvetica; font-size: 12px; font-style: normal; font-weight: 400; letter-spacing: normal; text-align: center; text-indent: 0px; text-transform: none; word-spacing: 0px; display: inline; float: none;&quot;&gt;RIP-3&lt;/span&gt;" style="text;html=1;strokeColor=none;fillColor=none;align=center;verticalAlign=middle;whiteSpace=wrap;rounded=0;labelBackgroundColor=none;" vertex="1" parent="1">
          <mxGeometry x="-405" y="2225" width="40" height="20" as="geometry" />
        </mxCell>
        <mxCell id="g-i54Jcr1pJkgFoDs0SZ-17" value="" style="shape=mxgraph.signs.tech.computer;html=1;pointerEvents=1;verticalLabelPosition=bottom;verticalAlign=top;align=center;labelBackgroundColor=none;fontColor=#ffffff;strokeColor=#4D4D4D;fillColor=#004C99;" vertex="1" parent="1">
          <mxGeometry x="-1034.5" y="2009" width="62" height="52" as="geometry" />
        </mxCell>
        <mxCell id="g-i54Jcr1pJkgFoDs0SZ-18" value="" style="shape=mxgraph.signs.tech.computer;html=1;pointerEvents=1;verticalLabelPosition=bottom;verticalAlign=top;align=center;labelBackgroundColor=none;fontColor=#ffffff;strokeColor=#4D4D4D;fillColor=#4C0099;" vertex="1" parent="1">
          <mxGeometry x="-1034.5" y="2152.38" width="62" height="52" as="geometry" />
        </mxCell>
        <mxCell id="g-i54Jcr1pJkgFoDs0SZ-19" value="&lt;div style=&quot;font-family: &amp;#34;helvetica&amp;#34;&quot;&gt;源：11.1.1.10:8888:mac@1&lt;/div&gt;&lt;div style=&quot;font-family: &amp;#34;helvetica&amp;#34;&quot;&gt;目标：VIP:PORT:mac@VIP&lt;/div&gt;" style="rounded=1;whiteSpace=wrap;html=1;fillColor=#EA6B66;strokeColor=#EA6B66;" vertex="1" parent="1">
          <mxGeometry x="-1093" y="2079" width="179" height="41" as="geometry" />
        </mxCell>
        <mxCell id="g-i54Jcr1pJkgFoDs0SZ-20" value="&lt;div style=&quot;font-family: &amp;#34;helvetica&amp;#34;&quot;&gt;&lt;div&gt;源：22.1.1.20:6666:mac@2&lt;/div&gt;目标：VIP:PORT:mac@VIP&lt;/div&gt;" style="rounded=1;whiteSpace=wrap;html=1;fillColor=#EA6B66;strokeColor=#EA6B66;" vertex="1" parent="1">
          <mxGeometry x="-1093" y="2226" width="179" height="41" as="geometry" />
        </mxCell>
        <mxCell id="g-i54Jcr1pJkgFoDs0SZ-21" value="源：VIP:PORT:mac@RIP&lt;br&gt;目标：&lt;span style=&quot;font-family: &amp;#34;helvetica&amp;#34;&quot;&gt;11.1.1.10:8888:mac@1&lt;/span&gt;" style="rounded=1;whiteSpace=wrap;html=1;strokeColor=#82b366;fillColor=#82B366;" vertex="1" parent="1">
          <mxGeometry x="-667.5" y="1897" width="185" height="43" as="geometry" />
        </mxCell>
        <mxCell id="g-i54Jcr1pJkgFoDs0SZ-22" value="TCP 连接&lt;br&gt;VIP - CIP" style="rounded=1;whiteSpace=wrap;html=1;strokeWidth=2;glass=0;shadow=1;sketch=1;fillStyle=solid;strokeColor=#36393d;fillColor=#A680B8;" vertex="1" parent="1">
          <mxGeometry x="-254" y="1981" width="120" height="43" as="geometry" />
        </mxCell>
        <mxCell id="g-i54Jcr1pJkgFoDs0SZ-23" value="" style="group" vertex="1" connectable="0" parent="1">
          <mxGeometry x="-386" y="1973" width="110" height="91" as="geometry" />
        </mxCell>
        <mxCell id="g-i54Jcr1pJkgFoDs0SZ-24" value="&lt;meta charset=&quot;utf-8&quot;&gt;&lt;span style=&quot;color: rgb(0, 0, 0); font-family: helvetica; font-size: 12px; font-style: normal; font-weight: 400; letter-spacing: normal; text-align: center; text-indent: 0px; text-transform: none; word-spacing: 0px; display: inline; float: none;&quot;&gt;RIP-1&lt;/span&gt;" style="text;html=1;strokeColor=none;fillColor=none;align=center;verticalAlign=middle;whiteSpace=wrap;rounded=0;labelBackgroundColor=none;" vertex="1" parent="g-i54Jcr1pJkgFoDs0SZ-23">
          <mxGeometry x="35" y="10" width="40" height="20" as="geometry" />
        </mxCell>
        <mxCell id="g-i54Jcr1pJkgFoDs0SZ-25" value="&amp;nbsp; lo" style="rounded=1;whiteSpace=wrap;html=1;shadow=0;glass=0;sketch=0;strokeWidth=1;fontFamily=Tahoma;fontSize=14;fillStyle=solid;align=left;fillColor=#FF9933;strokeColor=#FF9933;" vertex="1" parent="g-i54Jcr1pJkgFoDs0SZ-23">
          <mxGeometry x="23" y="30" width="64" height="28" as="geometry" />
        </mxCell>
        <mxCell id="g-i54Jcr1pJkgFoDs0SZ-26" value="&lt;font style=&quot;font-size: 10px&quot;&gt;VIP&lt;/font&gt;" style="rounded=1;whiteSpace=wrap;html=1;shadow=0;glass=0;sketch=0;strokeWidth=1;fontFamily=Tahoma;fontSize=14;fillStyle=solid;fillColor=#A9C4EB;dashed=1;" vertex="1" parent="g-i54Jcr1pJkgFoDs0SZ-23">
          <mxGeometry x="51.63157894736844" y="35.5" width="23.57894736842105" height="17" as="geometry" />
        </mxCell>
        <mxCell id="g-i54Jcr1pJkgFoDs0SZ-27" value="" style="shape=mxgraph.signs.tech.computer;html=1;pointerEvents=1;verticalLabelPosition=bottom;verticalAlign=top;align=center;labelBackgroundColor=none;fontColor=#ffffff;fillColor=#4D4D4D;strokeColor=#4D4D4D;" vertex="1" parent="g-i54Jcr1pJkgFoDs0SZ-23">
          <mxGeometry width="110" height="91" as="geometry" />
        </mxCell>
        <mxCell id="g-i54Jcr1pJkgFoDs0SZ-28" style="edgeStyle=orthogonalEdgeStyle;curved=1;sketch=0;orthogonalLoop=1;jettySize=auto;html=1;exitX=0;exitY=0.5;exitDx=0;exitDy=0;exitPerimeter=0;entryX=1.008;entryY=0.301;entryDx=0;entryDy=0;entryPerimeter=0;shadow=1;strokeWidth=2;fontColor=#E6E6E6;strokeColor=#66CC00;dashed=1;" edge="1" parent="1" source="g-i54Jcr1pJkgFoDs0SZ-27" target="g-i54Jcr1pJkgFoDs0SZ-17">
          <mxGeometry relative="1" as="geometry">
            <Array as="points">
              <mxPoint x="-386" y="1955" />
              <mxPoint x="-729" y="1955" />
              <mxPoint x="-729" y="2025" />
            </Array>
          </mxGeometry>
        </mxCell>
        <mxCell id="g-i54Jcr1pJkgFoDs0SZ-34" value="" style="group" vertex="1" connectable="0" parent="1">
          <mxGeometry x="-675.5" y="2021.6399999999999" width="201" height="78.74000000000001" as="geometry" />
        </mxCell>
        <mxCell id="g-i54Jcr1pJkgFoDs0SZ-29" value="" style="rounded=1;whiteSpace=wrap;html=1;align=center;strokeColor=#FFD966;fillColor=#FFD966;" vertex="1" parent="g-i54Jcr1pJkgFoDs0SZ-34">
          <mxGeometry width="201" height="78.74" as="geometry" />
        </mxCell>
        <mxCell id="g-i54Jcr1pJkgFoDs0SZ-16" value="源：&lt;span style=&quot;font-family: &amp;#34;helvetica&amp;#34;&quot;&gt;11.1.1.10:8888&lt;/span&gt;&lt;span style=&quot;font-family: &amp;#34;helvetica&amp;#34;&quot;&gt;:mac@1&lt;/span&gt;&lt;br&gt;目标：VIP:PORT:mac@V&lt;span style=&quot;font-family: &amp;#34;helvetica&amp;#34;&quot;&gt;IP&lt;/span&gt;" style="rounded=1;whiteSpace=wrap;html=1;fillColor=#EA6B66;strokeColor=#EA6B66;" vertex="1" parent="g-i54Jcr1pJkgFoDs0SZ-34">
          <mxGeometry x="9.500976253298177" y="38.73684210526312" width="178.05540897097623" height="34.526315789473685" as="geometry" />
        </mxCell>
        <mxCell id="g-i54Jcr1pJkgFoDs0SZ-33" value="&lt;span style=&quot;text-align: center&quot;&gt;源：&lt;/span&gt;&lt;span style=&quot;text-align: center ; font-family: &amp;#34;helvetica&amp;#34;&quot;&gt;DIP:PORT&lt;/span&gt;&lt;span style=&quot;text-align: center ; font-family: &amp;#34;helvetica&amp;#34;&quot;&gt;:mac@DIP&lt;/span&gt;&lt;br style=&quot;text-align: center&quot;&gt;&lt;span style=&quot;text-align: center&quot;&gt;目标：&lt;/span&gt;RIP-1&lt;span style=&quot;text-align: center&quot;&gt;:PORT-1:&lt;/span&gt;&lt;font style=&quot;text-align: center&quot;&gt;mac@R&lt;span style=&quot;font-family: &amp;#34;helvetica&amp;#34;&quot;&gt;IP-1&lt;/span&gt;&lt;/font&gt;" style="text;html=1;strokeColor=none;fillColor=none;align=left;verticalAlign=middle;whiteSpace=wrap;rounded=0;" vertex="1" parent="g-i54Jcr1pJkgFoDs0SZ-34">
          <mxGeometry x="9.5" width="190.5" height="40" as="geometry" />
        </mxCell>
      </root>
    </mxGraphModel>
  </diagram>
</mxfile>
